# xmcd
#
# Track frame offsets: 
#        150
#        11793
#        22860
#        35095
#        47282
#        59450
#        74660
#        86150
#        98340
#        110851
#        120612
#        132271
#        143547
#        154620
#        167103
#
# Disc length: 2363 seconds
#
# Revision: 0
# Processed by: cddbd v1.5.2PL0 Copyright (c) Steve Scherf et al.
# Submitted via: ExactAudioCopy v1.3
#
DISCID=c609390f
DTITLE=Various Artist - Simply Country - CD6
DYEAR=2012
DGENRE=Country
TTITLE0=Patsy Cline - Walkin' After Midnight
TTITLE1=Jim Reeves - Oklahoma Hills
TTITLE2=Dolly Parton - Two Little Orphans
TTITLE3=Bing Crosby - Home On The Range
TTITLE4=Spade Cooley - Three Way Boogie
TTITLE5=Gene Autry - The Last Round Up
TTITLE6=Charlie Feathers - Defrost Your Heart
TTITLE7=The Sons of the Pioneers - Tumbling Tumbleweeds
TTITLE8=Charley Pride - Help Me Make It Through The Night (live)
TTITLE9=Ned Miller - From A Jack To A King
TTITLE10=Burl Ives - It Makes No Difference Now
TTITLE11=Leroy Van Dyke - Auctioneer
TTITLE12=Johnny Cash - I Love You Because
TTITLE13=Hank Williams - I Saw The Light
TTITLE14=Roger Miller - King Of The Road
EXTD=
EXTT0=
EXTT1=
EXTT2=
EXTT3=
EXTT4=
EXTT5=
EXTT6=
EXTT7=
EXTT8=
EXTT9=
EXTT10=
EXTT11=
EXTT12=
EXTT13=
EXTT14=
PLAYORDER=
